# xmcd
#
# Track frame offsets:
#	150
#	15487
#	31777
#	47800
#	62392
#	79210
#	96257
#	111715
#	129457
#
# Disc length: 1960
#
# Revision: 1
# Processed by: cddbd v1.5.1PL0 Copyright (c) Steve Scherf et al.
# Submitted via: ExactAudioCopy v0.95a5
# Normalized: r0:TDELIM( - )
#
DISCID=6f07a609
DTITLE=Various Artist - The Music Of 2004
DYEAR=2004
DGENRE=Country
TTITLE0=Montgomery Gentry - If You Ever Stop Loving Me
TTITLE1=Gretchen Wilson - Redneck Woman
TTITLE2=Buddy Jewell - Sweet Southern Comfort
TTITLE3=Jessi Alexander - Make Me Stay Or Make Me Go
TTITLE4=Mary Chapin Carpenter - What Would You Say To Me
TTITLE5=Colt Prather - I Won't Go On And On
TTITLE6=Trent Willmon - Beer Man
TTITLE7=Patty Loveless - On Your Way Home
TTITLE8=Rodney Crowell - Fate's Right Hand
EXTD=
EXTT0=
EXTT1=
EXTT2=
EXTT3=
EXTT4=
EXTT5=
EXTT6=
EXTT7=
EXTT8=
PLAYORDER=
